<svg xmlns="http://www.w3.org/2000/svg" height="511pt" version="1.1" viewBox="-38 1 511 511.99976" width="511pt">
<g id="surface1">
<path d="M 236.359375 251.109375 C 248.753906 244.480469 256.453125 231.640625 256.453125 217.605469 C 256.453125 196.675781 239.425781 179.648438 218.496094 179.648438 C 197.5625 179.648438 180.535156 196.675781 180.535156 217.605469 C 180.535156 231.738281 188.3125 244.621094 200.835938 251.21875 C 206.28125 254.089844 209.230469 259.832031 208.8125 265.601562 L 208.40625 321.488281 C 208.429688 326.917969 212.855469 331.328125 218.289062 331.328125 C 223.738281 331.328125 228.171875 326.894531 228.171875 321.445312 L 228.171875 321.339844 L 228.570312 266.347656 C 227.761719 260.316406 230.679688 254.148438 236.359375 251.109375 Z M 236.359375 251.109375 " style=" stroke:none;fill-rule:nonzero;fill:rgb(0%,0%,0%);fill-opacity:1;" />
<path d="M 435.988281 138.914062 L 435.972656 138.519531 C 435.75 133.601562 435.601562 128.394531 435.511719 122.605469 C 435.09375 94.375 412.652344 71.023438 384.417969 69.449219 C 325.550781 66.160156 280.011719 46.964844 241.101562 9.042969 L 240.769531 8.726562 C 228.074219 -2.910156 208.929688 -2.90625 196.242188 8.722656 L 195.90625 9.042969 C 156.996094 46.964844 111.457031 66.160156 52.589844 69.449219 C 24.355469 71.023438 1.914062 94.375 1.496094 122.609375 C 1.410156 128.363281 1.257812 133.566406 1.035156 138.519531 L 1.011719 139.445312 C -0.132812 199.472656 -1.554688 274.175781 23.4375 341.988281 C 37.179688 379.277344 57.988281 411.691406 85.289062 438.332031 C 116.386719 468.675781 157.113281 492.765625 206.347656 509.933594 C 207.949219 510.492188 209.609375 510.945312 211.300781 511.28125 C 213.691406 511.761719 216.097656 512 218.503906 512 C 220.910156 512 223.320312 511.761719 225.707031 511.28125 C 227.398438 510.945312 229.070312 510.488281 230.6875 509.925781 C 279.855469 492.730469 320.539062 468.628906 351.605469 438.289062 C 378.894531 411.636719 399.707031 379.210938 413.460938 341.917969 C 438.546875 273.902344 437.128906 199.054688 435.988281 138.914062 Z M 258.570312 272.554688 L 258.21875 321.503906 C 258.183594 343.496094 240.285156 361.375 218.289062 361.375 C 196.273438 361.375 178.363281 343.464844 178.363281 321.449219 L 178.363281 321.339844 L 178.710938 272.773438 C 161.101562 260.09375 150.492188 239.707031 150.492188 217.605469 C 150.492188 180.109375 180.996094 149.601562 218.496094 149.601562 C 255.992188 149.601562 286.5 180.109375 286.5 217.605469 C 286.5 239.550781 275.996094 259.855469 258.570312 272.554688 Z M 258.570312 272.554688 " style=" stroke:none;fill-rule:nonzero;fill:rgb(0%,0%,0%);fill-opacity:1;" />
</g>
</svg>